<mxfile host="app.diagrams.net" agent="Mozilla/5.0 (Windows NT 10.0; Win64; x64) AppleWebKit/537.36 (KHTML, like Gecko) Chrome/136.0.0.0 Safari/537.36" version="27.0.5">
  <diagram name="Página-1" id="QXCsORWz5skL0-pNi_Y7">
    <mxGraphModel dx="1281" dy="608" grid="1" gridSize="10" guides="1" tooltips="1" connect="1" arrows="1" fold="1" page="1" pageScale="1" pageWidth="827" pageHeight="1169" math="0" shadow="0">
      <root>
        <mxCell id="0" />
        <mxCell id="1" parent="0" />
        <mxCell id="HbwV8B20kgGg3xcN2Slz-1" value=":MatrículasUI" style="html=1;whiteSpace=wrap;" vertex="1" parent="1">
          <mxGeometry x="220" y="440" width="110" height="50" as="geometry" />
        </mxCell>
        <mxCell id="HbwV8B20kgGg3xcN2Slz-2" value=":&lt;font style=&quot;font-size: 11px;&quot;&gt;MatrículasController&lt;/font&gt;" style="html=1;whiteSpace=wrap;" vertex="1" parent="1">
          <mxGeometry x="530" y="440" width="110" height="50" as="geometry" />
        </mxCell>
        <mxCell id="HbwV8B20kgGg3xcN2Slz-7" value="" style="endArrow=none;html=1;rounded=0;exitX=1;exitY=0.5;exitDx=0;exitDy=0;entryX=0;entryY=0.5;entryDx=0;entryDy=0;" edge="1" parent="1" source="HbwV8B20kgGg3xcN2Slz-1" target="HbwV8B20kgGg3xcN2Slz-2">
          <mxGeometry width="50" height="50" relative="1" as="geometry">
            <mxPoint x="640" y="675" as="sourcePoint" />
            <mxPoint x="690" y="625" as="targetPoint" />
          </mxGeometry>
        </mxCell>
        <mxCell id="HbwV8B20kgGg3xcN2Slz-9" value="1: verificarMatriculasPendentes()" style="edgeLabel;html=1;align=center;verticalAlign=middle;resizable=0;points=[];" vertex="1" connectable="0" parent="HbwV8B20kgGg3xcN2Slz-7">
          <mxGeometry x="-0.1323" y="-2" relative="1" as="geometry">
            <mxPoint x="-3" y="-17" as="offset" />
          </mxGeometry>
        </mxCell>
        <mxCell id="HbwV8B20kgGg3xcN2Slz-19" value="&lt;font style=&quot;font-size: 12px;&quot;&gt;2a: [homologar]&amp;nbsp;&lt;font style=&quot;&quot;&gt;homologarMatricula(ID_matricula)&lt;/font&gt;&lt;/font&gt;" style="edgeLabel;html=1;align=center;verticalAlign=middle;resizable=0;points=[];" vertex="1" connectable="0" parent="HbwV8B20kgGg3xcN2Slz-7">
          <mxGeometry x="-0.1323" y="-2" relative="1" as="geometry">
            <mxPoint x="23" y="-102" as="offset" />
          </mxGeometry>
        </mxCell>
        <mxCell id="HbwV8B20kgGg3xcN2Slz-22" value="&lt;font style=&quot;font-size: 12px;&quot;&gt;2b: [não homologar]&amp;nbsp;&lt;font style=&quot;&quot;&gt;recusarMatricula(ID_matricula)&lt;/font&gt;&lt;/font&gt;" style="edgeLabel;html=1;align=center;verticalAlign=middle;resizable=0;points=[];" vertex="1" connectable="0" parent="HbwV8B20kgGg3xcN2Slz-7">
          <mxGeometry x="-0.1323" y="-2" relative="1" as="geometry">
            <mxPoint x="13" y="118" as="offset" />
          </mxGeometry>
        </mxCell>
        <mxCell id="HbwV8B20kgGg3xcN2Slz-25" value="&lt;font style=&quot;font-size: 11px;&quot;&gt;2b.1:&amp;nbsp;&lt;font style=&quot;&quot;&gt;recusarMatricula(ID_matricula)&lt;/font&gt;&lt;/font&gt;" style="edgeLabel;html=1;align=center;verticalAlign=middle;resizable=0;points=[];" vertex="1" connectable="0" parent="HbwV8B20kgGg3xcN2Slz-7">
          <mxGeometry x="-0.1323" y="-2" relative="1" as="geometry">
            <mxPoint x="323" y="28" as="offset" />
          </mxGeometry>
        </mxCell>
        <mxCell id="HbwV8B20kgGg3xcN2Slz-27" value="&lt;span style=&quot;color: rgb(0, 0, 0); background-color: rgb(255, 255, 255); float: none; display: inline !important;&quot;&gt;2a.1:&amp;nbsp;&lt;/span&gt;&lt;font style=&quot;color: rgb(0, 0, 0); background-color: rgb(255, 255, 255);&quot;&gt;homologarMatricula(ID_matricula)&lt;/font&gt;" style="edgeLabel;html=1;align=center;verticalAlign=middle;resizable=0;points=[];" vertex="1" connectable="0" parent="HbwV8B20kgGg3xcN2Slz-7">
          <mxGeometry x="-0.1323" y="-2" relative="1" as="geometry">
            <mxPoint x="323" y="8" as="offset" />
          </mxGeometry>
        </mxCell>
        <mxCell id="HbwV8B20kgGg3xcN2Slz-8" value=":MatrículasDB" style="html=1;whiteSpace=wrap;" vertex="1" parent="1">
          <mxGeometry x="870" y="440" width="110" height="50" as="geometry" />
        </mxCell>
        <mxCell id="HbwV8B20kgGg3xcN2Slz-10" value="" style="endArrow=none;html=1;rounded=0;entryX=0;entryY=0.5;entryDx=0;entryDy=0;exitX=0.009;exitY=1.018;exitDx=0;exitDy=0;exitPerimeter=0;" edge="1" parent="1" source="HbwV8B20kgGg3xcN2Slz-11" target="HbwV8B20kgGg3xcN2Slz-1">
          <mxGeometry width="50" height="50" relative="1" as="geometry">
            <mxPoint x="40" y="465" as="sourcePoint" />
            <mxPoint x="170" y="464.5" as="targetPoint" />
          </mxGeometry>
        </mxCell>
        <mxCell id="HbwV8B20kgGg3xcN2Slz-11" value="&lt;span style=&quot;font-size: 11px; background-color: rgb(255, 255, 255);&quot;&gt;verificarMatriculasPendentes()&lt;/span&gt;" style="text;html=1;align=center;verticalAlign=middle;resizable=0;points=[];autosize=1;strokeColor=none;fillColor=none;" vertex="1" parent="1">
          <mxGeometry x="20" y="435" width="170" height="30" as="geometry" />
        </mxCell>
        <mxCell id="HbwV8B20kgGg3xcN2Slz-12" value="" style="endArrow=classic;html=1;rounded=0;" edge="1" parent="1">
          <mxGeometry width="50" height="50" relative="1" as="geometry">
            <mxPoint x="190" y="449.9" as="sourcePoint" />
            <mxPoint x="210" y="449.9" as="targetPoint" />
          </mxGeometry>
        </mxCell>
        <mxCell id="HbwV8B20kgGg3xcN2Slz-13" value="" style="endArrow=classic;html=1;rounded=0;" edge="1" parent="1">
          <mxGeometry width="50" height="50" relative="1" as="geometry">
            <mxPoint x="500" y="449.80000000000007" as="sourcePoint" />
            <mxPoint x="520" y="449.80000000000007" as="targetPoint" />
          </mxGeometry>
        </mxCell>
        <mxCell id="HbwV8B20kgGg3xcN2Slz-14" value="" style="endArrow=classic;html=1;rounded=0;" edge="1" parent="1">
          <mxGeometry width="50" height="50" relative="1" as="geometry">
            <mxPoint x="840" y="449.83000000000004" as="sourcePoint" />
            <mxPoint x="860" y="449.83000000000004" as="targetPoint" />
          </mxGeometry>
        </mxCell>
        <mxCell id="HbwV8B20kgGg3xcN2Slz-15" value="" style="endArrow=none;html=1;rounded=0;exitX=1;exitY=0.5;exitDx=0;exitDy=0;entryX=0;entryY=0.5;entryDx=0;entryDy=0;" edge="1" parent="1" target="HbwV8B20kgGg3xcN2Slz-8">
          <mxGeometry width="50" height="50" relative="1" as="geometry">
            <mxPoint x="640" y="464.42999999999995" as="sourcePoint" />
            <mxPoint x="840" y="464.42999999999995" as="targetPoint" />
          </mxGeometry>
        </mxCell>
        <mxCell id="HbwV8B20kgGg3xcN2Slz-16" value="&lt;font style=&quot;font-size: 11px;&quot;&gt;1.1: verificarMatriculasPendentes()&lt;/font&gt;" style="edgeLabel;html=1;align=center;verticalAlign=middle;resizable=0;points=[];" vertex="1" connectable="0" parent="HbwV8B20kgGg3xcN2Slz-15">
          <mxGeometry x="-0.1323" y="-2" relative="1" as="geometry">
            <mxPoint x="-10" y="-17" as="offset" />
          </mxGeometry>
        </mxCell>
        <mxCell id="HbwV8B20kgGg3xcN2Slz-18" value="" style="endArrow=classic;html=1;rounded=0;" edge="1" parent="1">
          <mxGeometry width="50" height="50" relative="1" as="geometry">
            <mxPoint x="600" y="365" as="sourcePoint" />
            <mxPoint x="600" y="385.0000000000001" as="targetPoint" />
          </mxGeometry>
        </mxCell>
        <mxCell id="HbwV8B20kgGg3xcN2Slz-20" value="" style="endArrow=none;html=1;rounded=0;exitX=0.5;exitY=0;exitDx=0;exitDy=0;entryX=0.5;entryY=0;entryDx=0;entryDy=0;edgeStyle=orthogonalEdgeStyle;" edge="1" parent="1" source="HbwV8B20kgGg3xcN2Slz-1" target="HbwV8B20kgGg3xcN2Slz-2">
          <mxGeometry width="50" height="50" relative="1" as="geometry">
            <mxPoint x="300" y="585" as="sourcePoint" />
            <mxPoint x="350" y="535" as="targetPoint" />
            <Array as="points">
              <mxPoint x="275" y="375" />
              <mxPoint x="585" y="375" />
            </Array>
          </mxGeometry>
        </mxCell>
        <mxCell id="HbwV8B20kgGg3xcN2Slz-21" value="" style="endArrow=none;html=1;rounded=0;exitX=0.5;exitY=1;exitDx=0;exitDy=0;entryX=0.5;entryY=1;entryDx=0;entryDy=0;edgeStyle=orthogonalEdgeStyle;" edge="1" parent="1" source="HbwV8B20kgGg3xcN2Slz-1" target="HbwV8B20kgGg3xcN2Slz-2">
          <mxGeometry width="50" height="50" relative="1" as="geometry">
            <mxPoint x="410" y="685" as="sourcePoint" />
            <mxPoint x="460" y="635" as="targetPoint" />
            <Array as="points">
              <mxPoint x="275" y="575" />
              <mxPoint x="585" y="575" />
            </Array>
          </mxGeometry>
        </mxCell>
        <mxCell id="HbwV8B20kgGg3xcN2Slz-23" value="" style="endArrow=classic;html=1;rounded=0;" edge="1" parent="1">
          <mxGeometry width="50" height="50" relative="1" as="geometry">
            <mxPoint x="600" y="585" as="sourcePoint" />
            <mxPoint x="600" y="565" as="targetPoint" />
          </mxGeometry>
        </mxCell>
        <mxCell id="HbwV8B20kgGg3xcN2Slz-26" value="" style="endArrow=classic;html=1;rounded=0;" edge="1" parent="1">
          <mxGeometry width="50" height="50" relative="1" as="geometry">
            <mxPoint x="840" y="474.83000000000004" as="sourcePoint" />
            <mxPoint x="860" y="474.83000000000004" as="targetPoint" />
          </mxGeometry>
        </mxCell>
        <mxCell id="HbwV8B20kgGg3xcN2Slz-29" value="" style="endArrow=classic;html=1;rounded=0;" edge="1" parent="1">
          <mxGeometry width="50" height="50" relative="1" as="geometry">
            <mxPoint x="840" y="495" as="sourcePoint" />
            <mxPoint x="860" y="495" as="targetPoint" />
          </mxGeometry>
        </mxCell>
        <mxCell id="HbwV8B20kgGg3xcN2Slz-31" value=":ConsultasUI" style="html=1;whiteSpace=wrap;" vertex="1" parent="1">
          <mxGeometry x="230" y="750" width="110" height="50" as="geometry" />
        </mxCell>
        <mxCell id="HbwV8B20kgGg3xcN2Slz-32" value=":&lt;font style=&quot;font-size: 11px;&quot;&gt;ConsultasController&lt;/font&gt;" style="html=1;whiteSpace=wrap;" vertex="1" parent="1">
          <mxGeometry x="570" y="750" width="110" height="50" as="geometry" />
        </mxCell>
        <mxCell id="HbwV8B20kgGg3xcN2Slz-33" value=":ConsultasDB" style="html=1;whiteSpace=wrap;" vertex="1" parent="1">
          <mxGeometry x="800" y="750" width="110" height="50" as="geometry" />
        </mxCell>
        <mxCell id="HbwV8B20kgGg3xcN2Slz-35" value="" style="endArrow=classic;html=1;rounded=0;" edge="1" parent="1">
          <mxGeometry width="50" height="50" relative="1" as="geometry">
            <mxPoint x="200" y="764.86" as="sourcePoint" />
            <mxPoint x="220" y="764.86" as="targetPoint" />
          </mxGeometry>
        </mxCell>
        <mxCell id="HbwV8B20kgGg3xcN2Slz-36" value="" style="endArrow=none;html=1;rounded=0;entryX=0;entryY=0.5;entryDx=0;entryDy=0;" edge="1" parent="1" target="HbwV8B20kgGg3xcN2Slz-31">
          <mxGeometry width="50" height="50" relative="1" as="geometry">
            <mxPoint x="10" y="775" as="sourcePoint" />
            <mxPoint x="210" y="770" as="targetPoint" />
          </mxGeometry>
        </mxCell>
        <mxCell id="HbwV8B20kgGg3xcN2Slz-39" value="&lt;span style=&quot;font-size: 10px; background-color: rgb(255, 255, 255);&quot;&gt;agendarConsulta(informacoes_paciente)&lt;/span&gt;" style="text;html=1;align=center;verticalAlign=middle;resizable=0;points=[];autosize=1;strokeColor=none;fillColor=none;" vertex="1" parent="1">
          <mxGeometry y="750" width="200" height="30" as="geometry" />
        </mxCell>
        <mxCell id="HbwV8B20kgGg3xcN2Slz-43" value="&lt;span style=&quot;font-size: 10px; background-color: rgb(255, 255, 255);&quot;&gt;1: agendarConsulta(informacoes_paciente)&lt;/span&gt;" style="text;html=1;align=center;verticalAlign=middle;resizable=0;points=[];autosize=1;strokeColor=none;fillColor=none;" vertex="1" parent="1">
          <mxGeometry x="330" y="750" width="220" height="30" as="geometry" />
        </mxCell>
        <mxCell id="HbwV8B20kgGg3xcN2Slz-44" value="" style="endArrow=classic;html=1;rounded=0;" edge="1" parent="1">
          <mxGeometry width="50" height="50" relative="1" as="geometry">
            <mxPoint x="540" y="764.75" as="sourcePoint" />
            <mxPoint x="560" y="764.75" as="targetPoint" />
          </mxGeometry>
        </mxCell>
        <mxCell id="HbwV8B20kgGg3xcN2Slz-45" value="" style="endArrow=none;html=1;rounded=0;entryX=0;entryY=0.5;entryDx=0;entryDy=0;exitX=1;exitY=0.5;exitDx=0;exitDy=0;" edge="1" parent="1" source="HbwV8B20kgGg3xcN2Slz-31" target="HbwV8B20kgGg3xcN2Slz-32">
          <mxGeometry width="50" height="50" relative="1" as="geometry">
            <mxPoint x="360" y="775" as="sourcePoint" />
            <mxPoint x="580" y="775" as="targetPoint" />
          </mxGeometry>
        </mxCell>
        <mxCell id="HbwV8B20kgGg3xcN2Slz-51" value="" style="endArrow=none;html=1;rounded=0;exitX=0.055;exitY=0.012;exitDx=0;exitDy=0;edgeStyle=orthogonalEdgeStyle;exitPerimeter=0;" edge="1" parent="1" source="HbwV8B20kgGg3xcN2Slz-32">
          <mxGeometry width="50" height="50" relative="1" as="geometry">
            <mxPoint x="630" y="740" as="sourcePoint" />
            <mxPoint x="670" y="710" as="targetPoint" />
            <Array as="points">
              <mxPoint x="576" y="710" />
            </Array>
          </mxGeometry>
        </mxCell>
        <mxCell id="HbwV8B20kgGg3xcN2Slz-52" value="" style="endArrow=none;html=1;rounded=0;" edge="1" parent="1">
          <mxGeometry width="50" height="50" relative="1" as="geometry">
            <mxPoint x="670" y="750" as="sourcePoint" />
            <mxPoint x="670" y="710" as="targetPoint" />
          </mxGeometry>
        </mxCell>
        <mxCell id="HbwV8B20kgGg3xcN2Slz-53" value="&lt;span style=&quot;background-color: rgb(255, 255, 255);&quot;&gt;&lt;font style=&quot;font-size: 10px;&quot;&gt;1.1: verificar(informacoes_paciente)&lt;/font&gt;&lt;/span&gt;" style="text;html=1;align=center;verticalAlign=middle;resizable=0;points=[];autosize=1;strokeColor=none;fillColor=none;" vertex="1" parent="1">
          <mxGeometry x="530" y="680" width="180" height="30" as="geometry" />
        </mxCell>
        <mxCell id="HbwV8B20kgGg3xcN2Slz-54" value="" style="endArrow=classic;html=1;rounded=0;" edge="1" parent="1">
          <mxGeometry width="50" height="50" relative="1" as="geometry">
            <mxPoint x="680" y="710" as="sourcePoint" />
            <mxPoint x="680" y="730" as="targetPoint" />
          </mxGeometry>
        </mxCell>
        <mxCell id="HbwV8B20kgGg3xcN2Slz-55" value="c:Consulta" style="html=1;whiteSpace=wrap;" vertex="1" parent="1">
          <mxGeometry x="570" y="870" width="110" height="50" as="geometry" />
        </mxCell>
        <mxCell id="HbwV8B20kgGg3xcN2Slz-56" value="" style="endArrow=none;html=1;rounded=0;entryX=0.5;entryY=1;entryDx=0;entryDy=0;exitX=0.5;exitY=0;exitDx=0;exitDy=0;" edge="1" parent="1" source="HbwV8B20kgGg3xcN2Slz-55" target="HbwV8B20kgGg3xcN2Slz-32">
          <mxGeometry width="50" height="50" relative="1" as="geometry">
            <mxPoint x="530" y="810" as="sourcePoint" />
            <mxPoint x="580" y="760" as="targetPoint" />
          </mxGeometry>
        </mxCell>
        <mxCell id="HbwV8B20kgGg3xcN2Slz-57" value="&lt;span style=&quot;background-color: rgb(255, 255, 255);&quot;&gt;&lt;font style=&quot;font-size: 10px;&quot;&gt;1.2: criar(informacoes_paciente)&lt;/font&gt;&lt;/span&gt;" style="text;html=1;align=center;verticalAlign=middle;resizable=0;points=[];autosize=1;strokeColor=none;fillColor=none;" vertex="1" parent="1">
          <mxGeometry x="620" y="810" width="170" height="30" as="geometry" />
        </mxCell>
        <mxCell id="HbwV8B20kgGg3xcN2Slz-58" value="" style="endArrow=classic;html=1;rounded=0;" edge="1" parent="1">
          <mxGeometry width="50" height="50" relative="1" as="geometry">
            <mxPoint x="640" y="840" as="sourcePoint" />
            <mxPoint x="640" y="860" as="targetPoint" />
          </mxGeometry>
        </mxCell>
        <mxCell id="HbwV8B20kgGg3xcN2Slz-59" value="" style="endArrow=none;html=1;rounded=0;exitX=1;exitY=0.5;exitDx=0;exitDy=0;entryX=0;entryY=0.5;entryDx=0;entryDy=0;" edge="1" parent="1" source="HbwV8B20kgGg3xcN2Slz-32" target="HbwV8B20kgGg3xcN2Slz-33">
          <mxGeometry width="50" height="50" relative="1" as="geometry">
            <mxPoint x="710" y="780" as="sourcePoint" />
            <mxPoint x="800" y="690" as="targetPoint" />
          </mxGeometry>
        </mxCell>
        <mxCell id="HbwV8B20kgGg3xcN2Slz-60" value="&lt;span style=&quot;background-color: rgb(255, 255, 255);&quot;&gt;&lt;font style=&quot;font-size: 10px;&quot;&gt;1.3: salvar(c)&lt;/font&gt;&lt;/span&gt;" style="text;html=1;align=center;verticalAlign=middle;resizable=0;points=[];autosize=1;strokeColor=none;fillColor=none;" vertex="1" parent="1">
          <mxGeometry x="685" y="750" width="80" height="30" as="geometry" />
        </mxCell>
        <mxCell id="HbwV8B20kgGg3xcN2Slz-61" value="" style="endArrow=classic;html=1;rounded=0;" edge="1" parent="1">
          <mxGeometry width="50" height="50" relative="1" as="geometry">
            <mxPoint x="770" y="764.89" as="sourcePoint" />
            <mxPoint x="790" y="764.89" as="targetPoint" />
          </mxGeometry>
        </mxCell>
        <mxCell id="HbwV8B20kgGg3xcN2Slz-62" value="&lt;font style=&quot;font-size: 14px;&quot;&gt;&lt;b&gt;1 - Caso de uso: &lt;u&gt;Homologar matrículas&lt;/u&gt;&lt;/b&gt;&lt;/font&gt;" style="text;html=1;align=center;verticalAlign=middle;resizable=0;points=[];autosize=1;strokeColor=none;fillColor=none;" vertex="1" parent="1">
          <mxGeometry y="330" width="280" height="30" as="geometry" />
        </mxCell>
        <mxCell id="HbwV8B20kgGg3xcN2Slz-64" value="&lt;font style=&quot;font-size: 14px;&quot;&gt;&lt;b&gt;2 - Caso de uso: &lt;u&gt;Agendar consulta&lt;/u&gt;&lt;/b&gt;&lt;/font&gt;" style="text;html=1;align=center;verticalAlign=middle;resizable=0;points=[];autosize=1;strokeColor=none;fillColor=none;" vertex="1" parent="1">
          <mxGeometry y="690" width="250" height="30" as="geometry" />
        </mxCell>
      </root>
    </mxGraphModel>
  </diagram>
</mxfile>
